<svg id="svg" version="1.1" xmlns="http://www.w3.org/2000/svg" xmlns:xlink="http://www.w3.org/1999/xlink" width="400" height="400" viewBox="0, 0, 400,400"><g id="svgg"><path id="path0" d="M189.283 0.194 C 188.467 0.261,185.721 0.477,183.182 0.673 C 71.520 9.287,-11.548 110.645,1.176 222.754 C 11.705 315.517,85.652 388.984,178.401 398.828 C 308.486 412.635,416.479 300.600,397.837 171.180 C 385.227 83.637,316.057 14.520,228.524 1.996 C 218.122 0.508,197.131 -0.456,189.283 0.194 M212.861 22.437 C 335.529 31.472,412.785 158.335,364.421 271.315 C 320.782 373.258,194.717 411.056,102.078 349.973 C 1.919 283.931,-6.137 140.049,86.030 63.361 C 115.536 38.810,149.000 25.527,189.448 22.310 C 192.778 22.045,208.714 22.131,212.861 22.437 M246.661 104.823 C 225.131 111.912,227.221 180.049,248.969 180.049 C 267.671 180.049,273.317 124.977,256.354 108.014 C 253.632 105.292,249.434 103.910,246.661 104.823 M144.435 106.472 C 122.905 113.561,124.996 181.698,146.744 181.698 C 165.446 181.698,171.091 126.626,154.128 109.663 C 151.406 106.941,147.208 105.559,144.435 106.472 M316.406 217.776 C 310.038 219.350,307.723 225.043,309.274 235.317 L 309.727 238.318 307.899 243.733 C 298.828 270.597,281.864 292.434,257.081 309.149 C 251.979 312.590,250.243 313.310,240.725 315.930 C 208.601 324.775,171.125 322.320,148.228 309.870 C 124.741 297.100,106.686 276.409,95.202 249.104 L 93.663 245.446 94.027 242.509 C 95.986 226.682,86.937 220.217,72.633 227.223 C 62.518 232.177,61.597 239.184,69.976 247.428 C 72.045 249.463,72.399 250.015,73.683 253.199 C 86.720 285.524,107.460 308.615,140.148 327.198 C 159.671 338.297,190.779 344.198,215.580 341.507 C 270.606 335.538,314.637 297.740,327.827 245.149 L 328.510 242.426 330.376 241.274 C 338.927 235.996,339.737 229.096,332.627 222.096 C 328.361 217.897,322.372 216.302,316.406 217.776 " stroke="none" fill="#000000" fill-rule="evenodd"></path></g></svg>